<svg xmlns="http://www.w3.org/2000/svg" width="980" height="938" viewBox="0 0 980 938">
  <rect width="100%" height="100%" rx="0" fill="#101418"/>
  <rect x="0" y="0" width="980" height="44" fill="#1f2933"/>
  <circle cx="24" cy="22" r="6" fill="#ff5f57"/>
  <circle cx="44" cy="22" r="6" fill="#ffbd2e"/>
  <circle cx="64" cy="22" r="6" fill="#28c840"/>
  <text x="88" y="28" class="title">15-frontend-probes</text>
  <style>
    .title { fill: #e5edf5; font: 600 15px monospace; }
    .mono { fill: #d7e0ea; font: 14px monospace; white-space: pre; }
  </style>
  <text x="24" y="68" class="mono">$ kubectl describe deployment frontend -n travelo</text><text x="24" y="86" class="mono"></text><text x="24" y="104" class="mono">Name:                   frontend</text><text x="24" y="122" class="mono">Namespace:              travelo</text><text x="24" y="140" class="mono">CreationTimestamp:      Sat, 09 May 2026 00:03:48 +0100</text><text x="24" y="158" class="mono">Labels:                 app=frontend</text><text x="24" y="176" class="mono">Annotations:            deployment.kubernetes.io/revision: 1</text><text x="24" y="194" class="mono">Selector:               app=frontend</text><text x="24" y="212" class="mono">Replicas:               2 desired | 2 updated | 2 total | 2 available | 0 unavailable</text><text x="24" y="230" class="mono">StrategyType:           RollingUpdate</text><text x="24" y="248" class="mono">MinReadySeconds:        0</text><text x="24" y="266" class="mono">RollingUpdateStrategy:  0 max unavailable, 1 max surge</text><text x="24" y="284" class="mono">Pod Template:</text><text x="24" y="302" class="mono">  Labels:  app=frontend</text><text x="24" y="320" class="mono">  Containers:</text><text x="24" y="338" class="mono">   frontend:</text><text x="24" y="356" class="mono">    Image:      elmehdift37/travelo-frontend:1.0</text><text x="24" y="374" class="mono">    Port:       80/TCP (http)</text><text x="24" y="392" class="mono">    Host Port:  0/TCP (http)</text><text x="24" y="410" class="mono">    Limits:</text><text x="24" y="428" class="mono">      cpu:     500m</text><text x="24" y="446" class="mono">      memory:  256Mi</text><text x="24" y="464" class="mono">    Requests:</text><text x="24" y="482" class="mono">      cpu:         100m</text><text x="24" y="500" class="mono">      memory:      128Mi</text><text x="24" y="518" class="mono">    Liveness:      http-get http://:http/ delay=20s timeout=1s period=20s #success=1 #failure=3</text><text x="24" y="536" class="mono">    Readiness:     http-get http://:http/ delay=5s timeout=1s period=10s #success=1 #failure=3</text><text x="24" y="554" class="mono">    Startup:       http-get http://:http/ delay=0s timeout=1s period=3s #success=1 #failure=20</text><text x="24" y="572" class="mono">    Environment:   &lt;none&gt;</text><text x="24" y="590" class="mono">    Mounts:        &lt;none&gt;</text><text x="24" y="608" class="mono">  Volumes:         &lt;none&gt;</text><text x="24" y="626" class="mono">  Node-Selectors:  &lt;none&gt;</text><text x="24" y="644" class="mono">  Tolerations:     &lt;none&gt;</text><text x="24" y="662" class="mono">Conditions:</text><text x="24" y="680" class="mono">  Type           Status  Reason</text><text x="24" y="698" class="mono">  ----           ------  ------</text><text x="24" y="716" class="mono">  Available      True    MinimumReplicasAvailable</text><text x="24" y="734" class="mono">  Progressing    True    NewReplicaSetAvailable</text><text x="24" y="752" class="mono">OldReplicaSets:  &lt;none&gt;</text><text x="24" y="770" class="mono">NewReplicaSet:   frontend-86bd6d4cd6 (2/2 replicas created)</text><text x="24" y="788" class="mono">Events:</text><text x="24" y="806" class="mono">  Type    Reason             Age   From                   Message</text><text x="24" y="824" class="mono">  ----    ------             ----  ----                   -------</text><text x="24" y="842" class="mono">  Normal  ScalingReplicaSet  23m   deployment-controller  Scaled up replica set frontend-86bd6d4cd6 from 0 to 2</text><text x="24" y="860" class="mono"></text><text x="24" y="878" class="mono">exit code: 0</text><text x="24" y="896" class="mono">captured: 2026-05-09 00:26:49</text>
</svg>
