<svg xmlns="http://www.w3.org/2000/svg" width="900" height="470" viewBox="0 0 900 470">
  <rect width="100%" height="100%" rx="0" fill="#101418"/>
  <rect x="0" y="0" width="900" height="44" fill="#1f2933"/>
  <circle cx="24" cy="22" r="6" fill="#ff5f57"/>
  <circle cx="44" cy="22" r="6" fill="#ffbd2e"/>
  <circle cx="64" cy="22" r="6" fill="#28c840"/>
  <text x="88" y="28" class="title">21-servicemonitor</text>
  <style>
    .title { fill: #e5edf5; font: 600 15px monospace; }
    .mono { fill: #d7e0ea; font: 14px monospace; white-space: pre; }
  </style>
  <text x="24" y="68" class="mono">$ kubectl get servicemonitor -n monitoring</text><text x="24" y="86" class="mono"></text><text x="24" y="104" class="mono">NAME                                             AGE</text><text x="24" y="122" class="mono">kube-prometheus-stack-alertmanager               11m</text><text x="24" y="140" class="mono">kube-prometheus-stack-apiserver                  11m</text><text x="24" y="158" class="mono">kube-prometheus-stack-coredns                    11m</text><text x="24" y="176" class="mono">kube-prometheus-stack-grafana                    11m</text><text x="24" y="194" class="mono">kube-prometheus-stack-kube-controller-manager    11m</text><text x="24" y="212" class="mono">kube-prometheus-stack-kube-etcd                  11m</text><text x="24" y="230" class="mono">kube-prometheus-stack-kube-proxy                 11m</text><text x="24" y="248" class="mono">kube-prometheus-stack-kube-scheduler             11m</text><text x="24" y="266" class="mono">kube-prometheus-stack-kube-state-metrics         11m</text><text x="24" y="284" class="mono">kube-prometheus-stack-kubelet                    11m</text><text x="24" y="302" class="mono">kube-prometheus-stack-operator                   11m</text><text x="24" y="320" class="mono">kube-prometheus-stack-prometheus                 11m</text><text x="24" y="338" class="mono">kube-prometheus-stack-prometheus-node-exporter   11m</text><text x="24" y="356" class="mono">loki                                             10m</text><text x="24" y="374" class="mono">travelo-backend                                  11m</text><text x="24" y="392" class="mono"></text><text x="24" y="410" class="mono">exit code: 0</text><text x="24" y="428" class="mono">captured: 2026-05-09 00:26:51</text>
</svg>
